<mxfile host="app.diagrams.net" modified="2023-07-13T00:23:53.942Z" agent="Mozilla/5.0 (Macintosh; Intel Mac OS X 10_15_7) AppleWebKit/537.36 (KHTML, like Gecko) Chrome/114.0.0.0 Safari/537.36" version="21.1.6" etag="b-b5YepeEQuyhk_leY8e" type="github">
  <diagram name="Page-1" id="idsUtsZRdNw0L_9zb5hp">
    <mxGraphModel>
      <root>
        <mxCell id="0" />
        <mxCell id="1" parent="0" />
      </root>
    </mxGraphModel>
  </diagram>
</mxfile>
